# xmcd
#
# Track frame offsets: 
#        150
#        27588
#        55499
#        72655
#        97189
#        128548
#        156802
#        188096
#        210209
#        236752
#        274291
#
# Disc length: 4427 seconds
#
# Revision: 1
# Processed by: cddbd v1.5.2PL0 Copyright (c) Steve Scherf et al.
# Submitted via: ExactAudioCopy v0.99pb5
#
DISCID=a211490b
DTITLE=Gov't Mule - Life Before Insanity
DYEAR=1900
DGENRE=Blues
TTITLE0=Wandering Child
TTITLE1=Life Before Insanity
TTITLE2=Bad Little Doggie
TTITLE3=Lay Your Burden Down
TTITLE4=Fallen Down
TTITLE5=World Gone Wild
TTITLE6=Tastes Like Wine
TTITLE7=I Think You Know What I Mean
TTITLE8=Far Away
TTITLE9=No Need To Suffer
TTITLE10=In My Life
EXTD=
EXTT0=
EXTT1=
EXTT2=
EXTT3=
EXTT4=
EXTT5=
EXTT6=
EXTT7=
EXTT8=
EXTT9=
EXTT10=
PLAYORDER=
